<svg id="Layer_1" data-name="Layer 1" xmlns="http://www.w3.org/2000/svg" viewBox="0 0 92 40"><defs><style>.cls-1{fill:#c6a363;}</style></defs><path class="cls-1" d="M6.89,34.6c-3-2.22-4.14-2.71-5.89-2.83v7H13.61l-1-.37A41,41,0,0,1,6.89,34.6Z"/><path class="cls-1" d="M11,7.05s.56,13.71-8.11,21.73L2.65,29a38.65,38.65,0,0,0,17-26A27.87,27.87,0,0,1,2.47,30S23.29,27.67,25.65,1.21H1v27.6C2.28,27.69,8.77,21.38,11,7.05Z"/><path class="cls-1" d="M24.84,38c-7.2,2.32-13.73-1.82-16.13-3.76A23.12,23.12,0,0,0,3.06,31a15,15,0,0,1,3.42.35,20.63,20.63,0,0,1,7,3c2.5,1.61,6.92,4,10.84,3.54Z"/><path class="cls-1" d="M26.09,20.47A3.35,3.35,0,0,1,26,15.38a4.51,4.51,0,0,1,3.08-1,10.65,10.65,0,0,1,1.4.1l1,.15c.11,0,.15.05.15.1s0,.18-.05.49,0,.79,0,1,0,.22-.13.22-.1-.07-.1-.19a1.2,1.2,0,0,0-.38-.83,2.86,2.86,0,0,0-1.87-.52,2.67,2.67,0,0,0-1.82.5,2.82,2.82,0,0,0-.9,2.32,3.05,3.05,0,0,0,3,3.14c.86,0,1.33-.06,1.72-.48a1.54,1.54,0,0,0,.33-.59c0-.14,0-.18.12-.18s.11.08.11.15A7.33,7.33,0,0,1,31.42,21c0,.16-.09.2-.25.27a6.24,6.24,0,0,1-1.75.2A5.18,5.18,0,0,1,26.09,20.47Z"/><path class="cls-1" d="M33.3,17.15c0-1.36,0-1.61,0-1.9s-.12-.4-.42-.48a2,2,0,0,0-.38,0c-.11,0-.16,0-.16-.1s.06-.08.21-.08l1.45,0,1.24,0c.15,0,.21,0,.21.08s0,.1-.15.1a1.5,1.5,0,0,0-.29,0c-.25,0-.33.17-.35.48s0,.54,0,1.9V18.4c0,1.3.26,1.81.74,2.16a1.89,1.89,0,0,0,1.22.36,1.94,1.94,0,0,0,1.3-.47,2.78,2.78,0,0,0,.56-2.18V17.15c0-1.36,0-1.61,0-1.9s-.1-.4-.41-.48a1.83,1.83,0,0,0-.35,0c-.11,0-.17,0-.17-.1s.07-.08.2-.08l1.16,0,1.13,0c.13,0,.2,0,.2.08s-.06.1-.17.1a1.41,1.41,0,0,0-.28,0c-.27,0-.33.17-.36.48s0,.54,0,1.9v1a3.22,3.22,0,0,1-.92,2.69,3.12,3.12,0,0,1-2,.65,3.5,3.5,0,0,1-2.21-.61,2.82,2.82,0,0,1-.88-2.37Z"/><path class="cls-1" d="M41.88,17.15c0-1.36,0-1.61,0-1.9s-.11-.4-.41-.48a2.06,2.06,0,0,0-.39,0c-.1,0-.16,0-.16-.1s.07-.08.22-.08l1.32,0,1.51,0a3.45,3.45,0,0,1,1.83.38,1.54,1.54,0,0,1,.69,1.23c0,.66-.4,1.25-1.35,2,.86,1,1.55,1.82,2.13,2.38a1.81,1.81,0,0,0,1,.59,1,1,0,0,0,.23,0,.11.11,0,0,1,.12.1c0,.07-.06.09-.18.09h-.93a2.1,2.1,0,0,1-1.05-.18,4.3,4.3,0,0,1-1.32-1.31c-.39-.49-.8-1.09-.92-1.22a.2.2,0,0,0-.17-.07l-.87,0s-.08,0-.08.08v.12c0,.83,0,1.53,0,1.91s.08.43.38.47a4,4,0,0,0,.47,0,.11.11,0,0,1,.12.1c0,.06-.07.09-.19.09-.57,0-1.37,0-1.51,0l-1.19,0c-.12,0-.19,0-.19-.09s0-.1.15-.1a1.62,1.62,0,0,0,.35,0c.19,0,.25-.21.28-.47s.05-1.09.05-1.91Zm1.23.69c0,.09,0,.13.09.16a2.9,2.9,0,0,0,.74.08,1,1,0,0,0,.68-.15,1.49,1.49,0,0,0,.62-1.32A1.44,1.44,0,0,0,43.77,15a3.85,3.85,0,0,0-.57,0,.11.11,0,0,0-.09.13Z"/><path class="cls-1" d="M50.31,15.11l-1.44,0c-.56,0-.79.07-.93.27a1,1,0,0,0-.17.31c0,.07,0,.11-.11.11s-.09-.05-.09-.15.19-1,.21-1.08.06-.17.11-.17.18.08.42.11.65,0,1,0h3.93a4.65,4.65,0,0,0,.66,0l.26,0c.07,0,.08.05.08.18s0,.86,0,1.09,0,.15-.09.15-.1-.05-.11-.18v-.1c0-.23-.27-.5-1.14-.51l-1.23,0v3.61a18.87,18.87,0,0,0,.06,1.92c0,.25.09.42.37.46a4.07,4.07,0,0,0,.5,0c.11,0,.15.05.15.1s-.07.09-.19.09c-.63,0-1.28,0-1.56,0l-1.26,0c-.12,0-.19,0-.19-.09s0-.1.15-.1a1.4,1.4,0,0,0,.34,0c.2,0,.26-.21.29-.47s0-1.09,0-1.91Z"/><path class="cls-1" d="M56,17.15c0-1.36,0-1.61,0-1.9s-.12-.41-.33-.47a1.34,1.34,0,0,0-.35,0c-.1,0-.16,0-.16-.11s.08-.07.23-.07l1.3,0,1.25,0c.12,0,.2,0,.2.07s-.06.11-.16.11a1.41,1.41,0,0,0-.28,0c-.27,0-.35.17-.37.48s0,.54,0,1.9v1.57c0,.86,0,1.58,0,2s.1.38.39.42a4,4,0,0,0,.5,0c.11,0,.15.05.15.1s-.08.09-.19.09c-.64,0-1.3,0-1.56,0l-1.27,0c-.12,0-.19,0-.19-.09s0-.1.16-.1a1.58,1.58,0,0,0,.34,0c.2,0,.25-.17.29-.43s0-1.09,0-2Z"/><path class="cls-1" d="M59.59,15.43c-.22-.49-.36-.58-.71-.66a1.86,1.86,0,0,0-.37,0c-.09,0-.12,0-.12-.1s.1-.08.25-.08l1.41,0,1.23,0c.12,0,.23,0,.23.08s-.07.1-.15.1a.79.79,0,0,0-.38.06.19.19,0,0,0-.1.18,2.45,2.45,0,0,0,.22.67l1.63,4h0c.42-.93,1.67-3.81,1.9-4.4a1.32,1.32,0,0,0,.09-.32c0-.1,0-.13-.14-.16a1.58,1.58,0,0,0-.38,0c-.09,0-.17,0-.17-.1s.09-.08.28-.08l1,0,.92,0c.12,0,.2,0,.2.08s-.06.1-.16.1a.81.81,0,0,0-.47.1c-.12.09-.25.22-.51.79-.38.84-.64,1.33-1.17,2.42-.61,1.3-1.06,2.28-1.28,2.73s-.33.66-.47.66-.2-.12-.39-.54Z"/><path class="cls-1" d="M67.54,17.15c0-1.36,0-1.61,0-1.9s-.11-.4-.42-.48a2,2,0,0,0-.39,0c-.1,0-.16,0-.16-.1s.07-.08.22-.08l1.4,0h2.64c.17,0,.33,0,.41-.05a1.13,1.13,0,0,1,.15,0,.07.07,0,0,1,.07.08,3.27,3.27,0,0,0-.08.58c0,.09,0,.48-.06.59s0,.14-.11.14-.07,0-.07-.11a.93.93,0,0,0-.07-.33c-.08-.16-.15-.28-.64-.32-.16,0-1.32,0-1.52,0,0,0-.06,0-.06.09v2.21c0,.05,0,.09.06.09.22,0,1.48,0,1.7,0s.37,0,.46-.14.11-.11.15-.11a.08.08,0,0,1,.08.09s0,.2-.08.65c0,.18,0,.54,0,.6s0,.2-.1.2-.09,0-.09-.07,0-.21,0-.33-.18-.31-.54-.34c-.18,0-1.28,0-1.52,0,0,0,0,0,0,.09v.71c0,.31,0,1.07,0,1.33,0,.61.32.75,1.31.75a2.6,2.6,0,0,0,.91-.12c.24-.11.35-.3.42-.66,0-.1,0-.14.11-.14s.09.12.09.21a6.38,6.38,0,0,1-.13,1c-.07.23-.16.23-.52.23-.73,0-1.31,0-1.79,0l-1.12,0h-.55l-.67,0c-.12,0-.19,0-.19-.09s0-.1.16-.1a1.58,1.58,0,0,0,.34,0c.19,0,.25-.21.28-.47s.05-1.09.05-1.91Z"/><path class="cls-1" d="M75,18.72c0,1.15,0,1.72.21,1.88s.54.19,1.29.19c.52,0,.89,0,1.13-.25a1,1,0,0,0,.25-.53c0-.09,0-.14.11-.14s.08.09.08.2a6.16,6.16,0,0,1-.14,1c-.06.2-.11.24-.61.24-.7,0-1.26,0-1.74,0l-1.29,0h-.55l-.67,0c-.12,0-.19,0-.19-.09s0-.1.15-.1a1.46,1.46,0,0,0,.34,0c.2,0,.26-.21.29-.47s0-1.09,0-1.91V17.15c0-1.36,0-1.61,0-1.9s-.11-.4-.41-.48a1.45,1.45,0,0,0-.32,0c-.11,0-.17,0-.17-.1s.07-.08.21-.08l1.33,0,1.4,0c.14,0,.21,0,.21.08s-.06.1-.18.1a2.31,2.31,0,0,0-.37,0c-.27,0-.34.17-.36.48s0,.54,0,1.9Z"/><path class="cls-1" d="M81.07,18.72c0,1.15,0,1.72.21,1.88s.53.19,1.28.19c.52,0,.89,0,1.14-.25a1,1,0,0,0,.24-.53c0-.09,0-.14.11-.14s.09.09.09.2a6.35,6.35,0,0,1-.15,1c-.06.2-.11.24-.61.24-.7,0-1.26,0-1.74,0l-1.29,0H79.8l-.67,0c-.12,0-.19,0-.19-.09s0-.1.16-.1a1.58,1.58,0,0,0,.34,0c.19,0,.25-.21.28-.47s0-1.09,0-1.91V17.15c0-1.36,0-1.61,0-1.9s-.11-.4-.42-.48a1.45,1.45,0,0,0-.32,0c-.11,0-.17,0-.17-.1s.07-.08.21-.08l1.33,0,1.4,0c.15,0,.21,0,.21.08s0,.1-.17.1a2.43,2.43,0,0,0-.38,0c-.26,0-.34.17-.36.48s0,.54,0,1.9Z"/><path class="cls-1" d="M85.86,17.15c0-1.36,0-1.61,0-1.9s-.11-.4-.42-.48a1.94,1.94,0,0,0-.38,0c-.1,0-.17,0-.17-.1s.08-.08.22-.08l1.4,0h2.64c.18,0,.33,0,.41-.05a1.13,1.13,0,0,1,.15,0c.06,0,.07,0,.07.08a3.27,3.27,0,0,0-.08.58c0,.09,0,.48,0,.59s0,.14-.11.14-.08,0-.08-.11a.75.75,0,0,0-.07-.33c-.07-.16-.15-.28-.64-.32-.16,0-1.32,0-1.51,0s-.07,0-.07.09v2.21c0,.05,0,.09.07.09.22,0,1.47,0,1.69,0s.38,0,.46-.14.11-.11.16-.11a.08.08,0,0,1,.07.09s0,.2-.07.65a5.93,5.93,0,0,0-.05.6c0,.08,0,.2-.1.2s-.08,0-.08-.07a2.11,2.11,0,0,0,0-.33c0-.18-.17-.31-.54-.34-.17,0-1.27,0-1.51,0,0,0-.06,0-.06.09v.71c0,.31,0,1.07,0,1.33,0,.61.32.75,1.31.75a2.6,2.6,0,0,0,.91-.12c.25-.11.36-.3.42-.66,0-.1,0-.14.11-.14s.09.12.09.21a6.38,6.38,0,0,1-.13,1c-.07.23-.16.23-.52.23-.73,0-1.31,0-1.78,0l-1.13,0h-.55l-.67,0c-.12,0-.19,0-.19-.09s0-.1.16-.1a1.58,1.58,0,0,0,.34,0c.2,0,.25-.21.29-.47s0-1.09,0-1.91Z"/><path class="cls-1" d="M22.5,1.21V2.27H43.6l0,8.3h1.11l0-9.36Zm21,36.46H20.25v1.06h24.3l0-9.1h-1.1Z"/><path class="cls-1" d="M33,25.14h0l.27-1.36h.51l-.5,2.11h-.48l-.37-1.3h0l-.37,1.3h-.48l-.51-2.11h.52l.27,1.37h0l.37-1.37h.39Z"/><path class="cls-1" d="M36.17,25.89h-.51V25h-.82v.85h-.51V23.78h.51v.88h.82v-.88h.51Z"/><path class="cls-1" d="M38.11,25h-.77v.52h.93v.38H36.83V23.78h1.44v.38h-.93v.45h.77Z"/><path class="cls-1" d="M39.38,25.08v.81h-.52V23.78h.77a1,1,0,0,1,.61.17.54.54,0,0,1,.22.46.43.43,0,0,1-.09.28.65.65,0,0,1-.26.19.51.51,0,0,1,.29.19.53.53,0,0,1,.09.32v.13a.68.68,0,0,0,0,.19.27.27,0,0,0,.09.15v0h-.53a.26.26,0,0,1-.07-.16.86.86,0,0,1,0-.22v-.12a.29.29,0,0,0-.09-.23.33.33,0,0,0-.24-.08Zm0-.38h.26a.37.37,0,0,0,.23-.06.23.23,0,0,0,.08-.2.28.28,0,0,0-.08-.2.32.32,0,0,0-.24-.08h-.25Z"/><path class="cls-1" d="M42.44,25h-.78v.52h.93v.38H41.15V23.78h1.44v.38h-.93v.45h.78Z"/><path class="cls-1" d="M46,25.14h0l.27-1.36h.51l-.5,2.11h-.48l-.37-1.3h0l-.37,1.3h-.48l-.51-2.11h.52l.27,1.37h0l.37-1.37h.39Z"/><path class="cls-1" d="M47.88,25.89h-.51V23.78h.51Z"/><path class="cls-1" d="M50.41,25.89H49.9l-.81-1.33h0v1.32h-.51V23.78h.51l.81,1.32h0V23.78h.51Z"/><path class="cls-1" d="M51.07,25.89V23.78h.81a1,1,0,0,1,.65.24.84.84,0,0,1,.26.62V25a.81.81,0,0,1-.26.62,1,1,0,0,1-.65.25Zm.51-1.73v1.35h.3a.35.35,0,0,0,.28-.14.49.49,0,0,0,.11-.35v-.38a.51.51,0,0,0-.11-.35.34.34,0,0,0-.28-.13Z"/><path class="cls-1" d="M55.23,25a.87.87,0,0,1-.26.64.9.9,0,0,1-.67.26.93.93,0,0,1-.68-.26.87.87,0,0,1-.26-.64v-.38a.88.88,0,0,1,.26-.64A1,1,0,0,1,55,24a.88.88,0,0,1,.26.64Zm-.51-.38a.62.62,0,0,0-.11-.37.38.38,0,0,0-.31-.14.39.39,0,0,0-.32.14.62.62,0,0,0-.11.37V25a.66.66,0,0,0,.11.38.4.4,0,0,0,.32.14.38.38,0,0,0,.31-.14.59.59,0,0,0,.11-.38Z"/><path class="cls-1" d="M57.62,25.14h0l.27-1.36h.52l-.51,2.11h-.48l-.37-1.3h0l-.37,1.3H56.2l-.5-2.11h.51l.27,1.37h0l.37-1.37h.39Z"/><path class="cls-1" d="M60.06,25.33a.22.22,0,0,0-.08-.18A.84.84,0,0,0,59.7,25a2.57,2.57,0,0,1-.61-.27.5.5,0,0,1-.2-.42.49.49,0,0,1,.23-.42,1.14,1.14,0,0,1,1.2,0,.52.52,0,0,1,.22.47H60a.26.26,0,0,0-.08-.21.38.38,0,0,0-.26-.07.32.32,0,0,0-.22.07.19.19,0,0,0-.08.16.15.15,0,0,0,.09.14,1.06,1.06,0,0,0,.3.14,1.49,1.49,0,0,1,.58.27.5.5,0,0,1,.2.42.52.52,0,0,1-.23.44,1.07,1.07,0,0,1-.6.16,1.14,1.14,0,0,1-.63-.17.55.55,0,0,1-.25-.53h.5a.33.33,0,0,0,.09.26.46.46,0,0,0,.29.08.38.38,0,0,0,.24-.06A.21.21,0,0,0,60.06,25.33Z"/><path class="cls-1" d="M62.24,25.89V23.78H63a1.17,1.17,0,0,1,.64.15.48.48,0,0,1,.23.43.5.5,0,0,1-.08.27.48.48,0,0,1-.22.17.49.49,0,0,1,.29.17.48.48,0,0,1,.09.29.55.55,0,0,1-.21.47,1.09,1.09,0,0,1-.62.16Zm.51-1.23H63a.49.49,0,0,0,.27-.06.21.21,0,0,0,.1-.19.22.22,0,0,0-.09-.19.49.49,0,0,0-.27-.06h-.21Zm0,.32v.53h.33a.4.4,0,0,0,.24-.06.21.21,0,0,0,.08-.19.24.24,0,0,0-.07-.2.36.36,0,0,0-.24-.08h-.34Z"/><path class="cls-1" d="M65.81,25H65v.52H66v.38H64.52V23.78H66v.38H65v.45h.78Z"/><path class="cls-1" d="M68.25,25.17h0a.63.63,0,0,1-.21.55.94.94,0,0,1-.62.19.88.88,0,0,1-.65-.24.82.82,0,0,1-.25-.63v-.44a.82.82,0,0,1,.87-.86,1,1,0,0,1,.65.19.65.65,0,0,1,.22.54h-.5a.31.31,0,0,0-.37-.36.31.31,0,0,0-.27.13.61.61,0,0,0-.09.35v.44a.64.64,0,0,0,.1.36.38.38,0,0,0,.29.13.38.38,0,0,0,.26-.08.44.44,0,0,0,.08-.29Z"/><path class="cls-1" d="M70.68,25a.87.87,0,0,1-.26.64,1,1,0,0,1-1.35,0,.83.83,0,0,1-.26-.64v-.38a.84.84,0,0,1,.26-.64.9.9,0,0,1,.67-.25.94.94,0,0,1,.68.25.88.88,0,0,1,.26.64Zm-.51-.38a.62.62,0,0,0-.11-.37.4.4,0,0,0-.32-.14.38.38,0,0,0-.31.14.56.56,0,0,0-.11.37V25a.59.59,0,0,0,.11.38.39.39,0,0,0,.32.14.4.4,0,0,0,.31-.14.66.66,0,0,0,.11-.38Z"/><path class="cls-1" d="M72.46,25.25h0l.5-1.47h.67v2.11h-.51V24.53h0l-.48,1.36h-.35l-.47-1.34h0v1.34H71.3V23.78H72Z"/><path class="cls-1" d="M75.59,25h-.77v.52h.93v.38H74.3V23.78h1.45v.38h-.93v.45h.77Z"/><path class="cls-1" d="M78.58,25.48h-.66l-.13.41h-.53L78,23.78h.54l.72,2.11H78.7ZM78,25.1h.42l-.21-.65h0Z"/><path class="cls-1" d="M80.22,25.08v.81h-.51V23.78h.77a1,1,0,0,1,.6.17.55.55,0,0,1,.23.46.43.43,0,0,1-.09.28.62.62,0,0,1-.27.19.48.48,0,0,1,.29.19.53.53,0,0,1,.09.32v.13a.74.74,0,0,0,0,.19.22.22,0,0,0,.08.15v0h-.52a.27.27,0,0,1-.08-.16,1.8,1.8,0,0,1,0-.22v-.12a.32.32,0,0,0-.08-.23.37.37,0,0,0-.25-.08Zm0-.38h.26a.43.43,0,0,0,.24-.06.26.26,0,0,0,.08-.2.25.25,0,0,0-.09-.2.28.28,0,0,0-.23-.08h-.26Z"/><path class="cls-1" d="M83.45,24.16h-.58v1.73h-.51V24.16h-.57v-.38h1.66Z"/></svg>